<svg width="23" height="21" viewBox="0 0 23 21" fill="none" xmlns="http://www.w3.org/2000/svg">
<g id="Cart">
<path id="Vector" fill-rule="evenodd" clip-rule="evenodd" d="M6.67175 16.7997C5.4486 16.7997 4.45895 17.7447 4.45895 18.8997C4.45895 20.0546 5.4486 20.9996 6.67175 20.9996C7.89491 20.9996 8.89567 20.0546 8.89567 18.8997C8.89567 17.7447 7.89491 16.7997 6.67175 16.7997ZM0 1.04998C0 1.62747 0.500382 2.09996 1.11196 2.09996H2.22392L6.22697 10.0693L4.72583 12.6313C3.9141 14.0383 4.98158 15.7497 6.67176 15.7497H18.9033C19.5149 15.7497 20.0153 15.2772 20.0153 14.6997C20.0153 14.1223 19.5149 13.6498 18.9033 13.6498H6.67176L7.89491 11.5498H16.179C17.013 11.5498 17.7469 11.1193 18.1249 10.4683L22.1058 3.65394C22.5172 2.96095 21.9834 2.09996 21.1383 2.09996H4.68135L3.93634 0.598489C3.75842 0.230996 3.35812 0 2.93557 0H1.11196C0.500382 0 0 0.472492 0 1.04998ZM17.7913 16.7997C16.5682 16.7997 15.5785 17.7447 15.5785 18.8997C15.5785 20.0546 16.5682 20.9996 17.7913 20.9996C19.0145 20.9996 20.0153 20.0546 20.0153 18.8997C20.0153 17.7447 19.0145 16.7997 17.7913 16.7997Z" fill="#B4B4B4"/>
</g>
</svg>
