<svg width="28" height="26" viewBox="0 0 28 26" fill="none" xmlns="http://www.w3.org/2000/svg">
<g id="Notification">
<g id="Iconly/Bold/Notification">
<g id="Notification_2">
<path id="Vector" d="M11.5041 20.834C12.0665 20.7194 15.4935 20.7194 16.0559 20.834C16.5367 20.9409 17.0566 21.1907 17.0566 21.7363C17.0286 22.2556 16.7122 22.7161 16.275 23.0085C15.7082 23.434 15.0429 23.7035 14.3475 23.8006C13.9628 23.8486 13.5849 23.8497 13.2137 23.8006C12.5171 23.7035 11.8519 23.434 11.2861 23.0074C10.8478 22.7161 10.5314 22.2556 10.5034 21.7363C10.5034 21.1907 11.0234 20.9409 11.5041 20.834ZM13.8464 2.17038C16.1866 2.17038 18.5771 3.23965 19.9971 5.01377C20.9184 6.15614 21.341 7.29742 21.341 9.07154V9.53307C21.341 10.8937 21.7145 11.6956 22.5363 12.6198C23.159 13.3006 23.3581 14.1746 23.3581 15.1227C23.3581 16.0698 23.0349 16.9689 22.3876 17.6988C21.54 18.5739 20.3448 19.1325 19.125 19.2296C17.3573 19.3747 15.5884 19.4969 13.7961 19.4969C12.0027 19.4969 10.235 19.4238 8.46729 19.2296C7.24633 19.1325 6.05108 18.5739 5.20469 17.6988C4.55731 16.9689 4.23306 16.0698 4.23306 15.1227C4.23306 14.1746 4.4332 13.3006 5.05486 12.6198C5.90238 11.6956 6.25122 10.8937 6.25122 9.53307V9.07154C6.25122 7.24941 6.72306 6.05794 7.69468 4.89156C9.13926 3.19055 11.4548 2.17038 13.7458 2.17038L13.8464 2.17038Z" fill="#B4B4B4"/>
</g>
</g>
</g>
</svg>