<svg width="125" height="20" viewBox="0 0 125 20" fill="none" xmlns="http://www.w3.org/2000/svg">
<path d="M1.23295 4.81818H2.70455L6.16477 13.2699H6.28409L9.74432 4.81818H11.2159V15H10.0625V7.2642H9.96307L6.78125 15H5.66761L2.4858 7.2642H2.38636V15H1.23295V4.81818ZM15.7761 15.179C15.2922 15.179 14.853 15.0878 14.4586 14.9055C14.0642 14.7199 13.751 14.4531 13.519 14.1051C13.287 13.7538 13.171 13.3295 13.171 12.8324C13.171 12.3949 13.2572 12.0402 13.4295 11.7685C13.6019 11.4934 13.8322 11.2779 14.1206 11.1222C14.4089 10.9664 14.7271 10.8504 15.0751 10.7741C15.4264 10.6946 15.7794 10.6316 16.1341 10.5852C16.5981 10.5256 16.9743 10.4808 17.2626 10.451C17.5543 10.4179 17.7664 10.3632 17.899 10.2869C18.0349 10.2107 18.1028 10.0781 18.1028 9.8892V9.84943C18.1028 9.3589 17.9686 8.97775 17.7001 8.70597C17.435 8.43419 17.0323 8.2983 16.492 8.2983C15.9319 8.2983 15.4927 8.42093 15.1745 8.66619C14.8564 8.91146 14.6326 9.1733 14.5034 9.4517L13.3897 9.05398C13.5886 8.58996 13.8538 8.22869 14.1852 7.97017C14.5199 7.70833 14.8845 7.52604 15.2789 7.4233C15.6767 7.31723 16.0678 7.2642 16.4522 7.2642C16.6975 7.2642 16.9792 7.29403 17.2974 7.35369C17.6189 7.41004 17.9288 7.5277 18.2271 7.70668C18.5287 7.88565 18.7789 8.15578 18.9778 8.51705C19.1767 8.87831 19.2761 9.36222 19.2761 9.96875V15H18.1028V13.9659H18.0431C17.9636 14.1316 17.831 14.3089 17.6454 14.4979C17.4598 14.6868 17.2129 14.8475 16.9047 14.9801C16.5964 15.1127 16.2202 15.179 15.7761 15.179ZM15.9551 14.125C16.4191 14.125 16.8102 14.0339 17.1284 13.8516C17.4499 13.6693 17.6918 13.4339 17.8542 13.1456C18.0199 12.8572 18.1028 12.554 18.1028 12.2358V11.1619C18.0531 11.2216 17.9437 11.2763 17.7747 11.326C17.609 11.3724 17.4167 11.4138 17.198 11.4503C16.9825 11.4834 16.7721 11.5133 16.5666 11.5398C16.3644 11.563 16.2003 11.5829 16.0744 11.5994C15.7695 11.6392 15.4844 11.7038 15.2193 11.7933C14.9574 11.8795 14.7453 12.0104 14.5829 12.1861C14.4238 12.3584 14.3443 12.5937 14.3443 12.892C14.3443 13.2997 14.4951 13.608 14.7967 13.8168C15.1016 14.0223 15.4877 14.125 15.9551 14.125ZM21.4176 15V7.36364H22.5511V8.51705H22.6307C22.7699 8.1392 23.0218 7.83262 23.3864 7.5973C23.7509 7.36198 24.1619 7.24432 24.6193 7.24432C24.7055 7.24432 24.8132 7.24597 24.9425 7.24929C25.0717 7.2526 25.1695 7.25758 25.2358 7.2642V8.45739C25.196 8.44744 25.1049 8.43253 24.9624 8.41264C24.8232 8.38944 24.6757 8.37784 24.5199 8.37784C24.1487 8.37784 23.8172 8.45573 23.5256 8.61151C23.2372 8.76397 23.0085 8.97609 22.8395 9.24787C22.6738 9.51634 22.5909 9.82292 22.5909 10.1676V15H21.4176ZM27.7203 12.2159L27.7005 10.7642H27.9391L31.28 7.36364H32.7317L29.1721 10.9631H29.0726L27.7203 12.2159ZM26.6266 15V4.81818H27.7999V15H26.6266ZM31.4789 15L28.4959 11.2216L29.3311 10.4062L32.9703 15H31.4789ZM40.4265 15.179C39.9426 15.179 39.5034 15.0878 39.109 14.9055C38.7146 14.7199 38.4014 14.4531 38.1694 14.1051C37.9374 13.7538 37.8214 13.3295 37.8214 12.8324C37.8214 12.3949 37.9076 12.0402 38.0799 11.7685C38.2522 11.4934 38.4826 11.2779 38.771 11.1222C39.0593 10.9664 39.3775 10.8504 39.7255 10.7741C40.0768 10.6946 40.4298 10.6316 40.7844 10.5852C41.2485 10.5256 41.6246 10.4808 41.913 10.451C42.2047 10.4179 42.4168 10.3632 42.5494 10.2869C42.6853 10.2107 42.7532 10.0781 42.7532 9.8892V9.84943C42.7532 9.3589 42.619 8.97775 42.3505 8.70597C42.0853 8.43419 41.6826 8.2983 41.1424 8.2983C40.5823 8.2983 40.1431 8.42093 39.8249 8.66619C39.5067 8.91146 39.283 9.1733 39.1538 9.4517L38.0401 9.05398C38.239 8.58996 38.5041 8.22869 38.8356 7.97017C39.1703 7.70833 39.5349 7.52604 39.9293 7.4233C40.3271 7.31723 40.7182 7.2642 41.1026 7.2642C41.3479 7.2642 41.6296 7.29403 41.9478 7.35369C42.2693 7.41004 42.5792 7.5277 42.8775 7.70668C43.1791 7.88565 43.4293 8.15578 43.6282 8.51705C43.8271 8.87831 43.9265 9.36222 43.9265 9.96875V15H42.7532V13.9659H42.6935C42.614 14.1316 42.4814 14.3089 42.2958 14.4979C42.1102 14.6868 41.8633 14.8475 41.555 14.9801C41.2468 15.1127 40.8706 15.179 40.4265 15.179ZM40.6055 14.125C41.0695 14.125 41.4606 14.0339 41.7788 13.8516C42.1003 13.6693 42.3422 13.4339 42.5046 13.1456C42.6703 12.8572 42.7532 12.554 42.7532 12.2358V11.1619C42.7035 11.2216 42.5941 11.2763 42.4251 11.326C42.2594 11.3724 42.0671 11.4138 41.8484 11.4503C41.6329 11.4834 41.4225 11.5133 41.217 11.5398C41.0148 11.563 40.8507 11.5829 40.7248 11.5994C40.4199 11.6392 40.1348 11.7038 39.8697 11.7933C39.6078 11.8795 39.3957 12.0104 39.2333 12.1861C39.0742 12.3584 38.9947 12.5937 38.9947 12.892C38.9947 13.2997 39.1455 13.608 39.4471 13.8168C39.752 14.0223 40.1381 14.125 40.6055 14.125ZM47.2413 4.81818V15H46.068V4.81818H47.2413ZM50.5636 4.81818V15H49.3903V4.81818H50.5636ZM58.8972 15.179C58.4133 15.179 57.9741 15.0878 57.5797 14.9055C57.1853 14.7199 56.8721 14.4531 56.6401 14.1051C56.4081 13.7538 56.2921 13.3295 56.2921 12.8324C56.2921 12.3949 56.3783 12.0402 56.5506 11.7685C56.723 11.4934 56.9533 11.2779 57.2417 11.1222C57.53 10.9664 57.8482 10.8504 58.1962 10.7741C58.5475 10.6946 58.9005 10.6316 59.2551 10.5852C59.7192 10.5256 60.0953 10.4808 60.3837 10.451C60.6754 10.4179 60.8875 10.3632 61.0201 10.2869C61.156 10.2107 61.2239 10.0781 61.2239 9.8892V9.84943C61.2239 9.3589 61.0897 8.97775 60.8212 8.70597C60.556 8.43419 60.1534 8.2983 59.6131 8.2983C59.053 8.2983 58.6138 8.42093 58.2956 8.66619C57.9775 8.91146 57.7537 9.1733 57.6245 9.4517L56.5108 9.05398C56.7097 8.58996 56.9748 8.22869 57.3063 7.97017C57.641 7.70833 58.0056 7.52604 58.4 7.4233C58.7978 7.31723 59.1889 7.2642 59.5733 7.2642C59.8186 7.2642 60.1003 7.29403 60.4185 7.35369C60.74 7.41004 61.0499 7.5277 61.3482 7.70668C61.6498 7.88565 61.9 8.15578 62.0989 8.51705C62.2978 8.87831 62.3972 9.36222 62.3972 9.96875V15H61.2239V13.9659H61.1642C61.0847 14.1316 60.9521 14.3089 60.7665 14.4979C60.5809 14.6868 60.334 14.8475 60.0257 14.9801C59.7175 15.1127 59.3413 15.179 58.8972 15.179ZM59.0762 14.125C59.5402 14.125 59.9313 14.0339 60.2495 13.8516C60.571 13.6693 60.8129 13.4339 60.9753 13.1456C61.141 12.8572 61.2239 12.554 61.2239 12.2358V11.1619C61.1742 11.2216 61.0648 11.2763 60.8958 11.326C60.7301 11.3724 60.5378 11.4138 60.3191 11.4503C60.1036 11.4834 59.8932 11.5133 59.6877 11.5398C59.4855 11.563 59.3214 11.5829 59.1955 11.5994C58.8906 11.6392 58.6055 11.7038 58.3404 11.7933C58.0785 11.8795 57.8664 12.0104 57.704 12.1861C57.5449 12.3584 57.4654 12.5937 57.4654 12.892C57.4654 13.2997 57.6162 13.608 57.9178 13.8168C58.2227 14.0223 58.6088 14.125 59.0762 14.125ZM69.9478 9.07386L68.8938 9.37216C68.8275 9.1965 68.7298 9.0258 68.6005 8.86009C68.4746 8.69105 68.3022 8.55185 68.0835 8.44247C67.8647 8.3331 67.5846 8.27841 67.2433 8.27841C66.7759 8.27841 66.3865 8.38613 66.0749 8.60156C65.7667 8.81368 65.6126 9.08381 65.6126 9.41193C65.6126 9.7036 65.7186 9.93395 65.9308 10.103C66.1429 10.272 66.4743 10.4129 66.9251 10.5256L68.0586 10.804C68.7414 10.9697 69.2501 11.2232 69.5849 11.5646C69.9196 11.9027 70.087 12.3385 70.087 12.8722C70.087 13.3097 69.9611 13.7008 69.7092 14.0455C69.4606 14.3902 69.1126 14.6619 68.6651 14.8608C68.2177 15.0597 67.6973 15.1591 67.104 15.1591C66.3252 15.1591 65.6805 14.9901 65.1701 14.652C64.6597 14.3139 64.3365 13.8201 64.2006 13.1705L65.3143 12.892C65.4203 13.303 65.6209 13.6113 65.9158 13.8168C66.2141 14.0223 66.6036 14.125 67.0842 14.125C67.631 14.125 68.0652 14.009 68.3867 13.777C68.7115 13.5417 68.8739 13.2599 68.8739 12.9318C68.8739 12.6667 68.7811 12.4446 68.5955 12.2656C68.4099 12.0833 68.1249 11.9474 67.7404 11.858L66.4677 11.5597C65.7683 11.3939 65.2546 11.1371 64.9265 10.7891C64.6017 10.4377 64.4393 9.99858 64.4393 9.47159C64.4393 9.04072 64.5603 8.65956 64.8022 8.32812C65.0475 7.99669 65.3806 7.73651 65.8015 7.54758C66.2257 7.35866 66.7063 7.2642 67.2433 7.2642C67.9989 7.2642 68.5922 7.42992 69.0231 7.76136C69.4573 8.0928 69.7655 8.5303 69.9478 9.07386ZM75.7907 15V7.36364H76.9242V8.51705H77.0037C77.1429 8.1392 77.3948 7.83262 77.7594 7.5973C78.124 7.36198 78.535 7.24432 78.9924 7.24432C79.0785 7.24432 79.1863 7.24597 79.3155 7.24929C79.4448 7.2526 79.5426 7.25758 79.6088 7.2642V8.45739C79.5691 8.44744 79.4779 8.43253 79.3354 8.41264C79.1962 8.38944 79.0487 8.37784 78.8929 8.37784C78.5217 8.37784 78.1903 8.45573 77.8986 8.61151C77.6103 8.76397 77.3816 8.97609 77.2125 9.24787C77.0468 9.51634 76.964 9.82292 76.964 10.1676V15H75.7907ZM83.9689 15.1591C83.2331 15.1591 82.5984 14.9967 82.0648 14.6719C81.5345 14.3438 81.1252 13.8864 80.8368 13.2997C80.5518 12.7098 80.4093 12.0237 80.4093 11.2415C80.4093 10.4593 80.5518 9.76989 80.8368 9.1733C81.1252 8.57339 81.5262 8.10606 82.04 7.77131C82.557 7.43324 83.1602 7.2642 83.8496 7.2642C84.2473 7.2642 84.6401 7.33049 85.0279 7.46307C85.4157 7.59564 85.7686 7.81108 86.0868 8.10938C86.405 8.40436 86.6586 8.79545 86.8475 9.28267C87.0364 9.76989 87.1309 10.3698 87.1309 11.0824V11.5795H81.2445V10.5653H85.9377C85.9377 10.1345 85.8515 9.75 85.6792 9.41193C85.5101 9.07386 85.2682 8.80705 84.9533 8.61151C84.6417 8.41596 84.2739 8.31818 83.8496 8.31818C83.3823 8.31818 82.9779 8.43419 82.6365 8.66619C82.2985 8.89489 82.0383 9.19318 81.856 9.56108C81.6737 9.92898 81.5826 10.3234 81.5826 10.7443V11.4205C81.5826 11.9972 81.682 12.486 81.8809 12.8871C82.083 13.2848 82.3631 13.5881 82.7211 13.7969C83.079 14.0024 83.495 14.1051 83.9689 14.1051C84.2772 14.1051 84.5556 14.062 84.8042 13.9759C85.056 13.8864 85.2731 13.7538 85.4554 13.5781C85.6377 13.3991 85.7786 13.1771 85.878 12.9119L87.0115 13.2301C86.8922 13.6146 86.6917 13.9527 86.41 14.2443C86.1283 14.5327 85.7802 14.758 85.3659 14.9205C84.9516 15.0795 84.486 15.1591 83.9689 15.1591ZM91.1628 15.179C90.6789 15.179 90.2398 15.0878 89.8453 14.9055C89.4509 14.7199 89.1377 14.4531 88.9057 14.1051C88.6737 13.7538 88.5577 13.3295 88.5577 12.8324C88.5577 12.3949 88.6439 12.0402 88.8162 11.7685C88.9886 11.4934 89.2189 11.2779 89.5073 11.1222C89.7956 10.9664 90.1138 10.8504 90.4618 10.7741C90.8132 10.6946 91.1661 10.6316 91.5208 10.5852C91.9848 10.5256 92.361 10.4808 92.6493 10.451C92.941 10.4179 93.1531 10.3632 93.2857 10.2869C93.4216 10.2107 93.4895 10.0781 93.4895 9.8892V9.84943C93.4895 9.3589 93.3553 8.97775 93.0868 8.70597C92.8217 8.43419 92.419 8.2983 91.8787 8.2983C91.3186 8.2983 90.8794 8.42093 90.5613 8.66619C90.2431 8.91146 90.0194 9.1733 89.8901 9.4517L88.7765 9.05398C88.9753 8.58996 89.2405 8.22869 89.5719 7.97017C89.9067 7.70833 90.2712 7.52604 90.6657 7.4233C91.0634 7.31723 91.4545 7.2642 91.839 7.2642C92.0842 7.2642 92.3659 7.29403 92.6841 7.35369C93.0056 7.41004 93.3155 7.5277 93.6138 7.70668C93.9154 7.88565 94.1657 8.15578 94.3645 8.51705C94.5634 8.87831 94.6628 9.36222 94.6628 9.96875V15H93.4895V13.9659H93.4299C93.3503 14.1316 93.2177 14.3089 93.0321 14.4979C92.8465 14.6868 92.5996 14.8475 92.2914 14.9801C91.9831 15.1127 91.6069 15.179 91.1628 15.179ZM91.3418 14.125C91.8058 14.125 92.1969 14.0339 92.5151 13.8516C92.8366 13.6693 93.0785 13.4339 93.2409 13.1456C93.4067 12.8572 93.4895 12.554 93.4895 12.2358V11.1619C93.4398 11.2216 93.3304 11.2763 93.1614 11.326C92.9957 11.3724 92.8034 11.4138 92.5847 11.4503C92.3693 11.4834 92.1588 11.5133 91.9533 11.5398C91.7511 11.563 91.5871 11.5829 91.4611 11.5994C91.1562 11.6392 90.8712 11.7038 90.606 11.7933C90.3442 11.8795 90.132 12.0104 89.9696 12.1861C89.8105 12.3584 89.731 12.5937 89.731 12.892C89.731 13.2997 89.8818 13.608 90.1834 13.8168C90.4883 14.0223 90.8745 14.125 91.3418 14.125ZM99.6879 15.1591C99.0515 15.1591 98.4897 14.9983 98.0025 14.6768C97.5153 14.352 97.1341 13.8946 96.859 13.3047C96.5839 12.7114 96.4464 12.0104 96.4464 11.2017C96.4464 10.3996 96.5839 9.7036 96.859 9.11364C97.1341 8.52367 97.5169 8.06794 98.0075 7.74645C98.498 7.42495 99.0647 7.2642 99.7077 7.2642C100.205 7.2642 100.598 7.34706 100.886 7.51278C101.178 7.67519 101.4 7.8608 101.552 8.0696C101.708 8.27509 101.829 8.44413 101.915 8.5767H102.015V4.81818H103.188V15H102.054V13.8267H101.915C101.829 13.9659 101.706 14.1416 101.547 14.3537C101.388 14.5625 101.161 14.7498 100.866 14.9155C100.571 15.0779 100.178 15.1591 99.6879 15.1591ZM99.8469 14.1051C100.318 14.1051 100.715 13.9825 101.04 13.7372C101.365 13.4886 101.612 13.1456 101.781 12.7081C101.95 12.2673 102.034 11.7585 102.034 11.1818C102.034 10.6117 101.952 10.1129 101.786 9.68537C101.62 9.2545 101.375 8.91974 101.05 8.68111C100.725 8.43916 100.324 8.31818 99.8469 8.31818C99.3498 8.31818 98.9355 8.44579 98.604 8.70099C98.2759 8.95289 98.029 9.29593 97.8633 9.73011C97.7009 10.161 97.6197 10.6449 97.6197 11.1818C97.6197 11.7254 97.7025 12.2192 97.8683 12.6634C98.0373 13.1042 98.2859 13.4555 98.614 13.7173C98.9454 13.9759 99.3564 14.1051 99.8469 14.1051Z" fill="#1C1C1C"/>
<path d="M123 10.0001C123 6.68762 120.312 4.00012 117 4.00012C113.687 4.00012 111 6.68762 111 10.0001C111 13.3126 113.687 16.0001 117 16.0001C120.312 16.0001 123 13.3126 123 10.0001Z" stroke="#1C1C1C" stroke-width="1.5" stroke-miterlimit="10"/>
<path d="M120 7.50043L115.8 12.5004L114 10.5004" stroke="#1C1C1C" stroke-width="1.5" stroke-linecap="round" stroke-linejoin="round"/>
</svg>
