<svg width="37" height="36" viewBox="0 0 37 36" fill="none" xmlns="http://www.w3.org/2000/svg">
<g id="Group 106">
<path id="Ellipse 18" d="M18.2633 35.2826C27.829 35.2826 35.5833 27.5253 35.5833 17.9565C35.5833 8.38776 27.829 0.630432 18.2633 0.630432C8.6976 0.630432 0.943359 8.38776 0.943359 17.9565C0.943359 27.5253 8.6976 35.2826 18.2633 35.2826Z" stroke="#C4C4C4"/>
<path id="Vector" d="M12.543 26C12.543 26.5304 12.7537 27.0391 13.1288 27.4142C13.5038 27.7893 14.0125 28 14.543 28H22.543C23.0734 28 23.5821 27.7893 23.9572 27.4142C24.3323 27.0391 24.543 26.5304 24.543 26V14H12.543V26ZM14.543 16H22.543V26H14.543V16ZM22.043 11L21.043 10H16.043L15.043 11H11.543V13H25.543V11H22.043Z" fill="#F32626"/>
</g>
</svg>
