<svg width="36" height="36" viewBox="0 0 36 36" fill="none" xmlns="http://www.w3.org/2000/svg">
<g id="Group 107">
<path id="Ellipse 18" d="M17.984 35.2826C27.5497 35.2826 35.304 27.5253 35.304 17.9565C35.304 8.38776 27.5497 0.630432 17.984 0.630432C8.4183 0.630432 0.664062 8.38776 0.664062 17.9565C0.664062 27.5253 8.4183 35.2826 17.984 35.2826Z" stroke="#C4C4C4"/>
<path id="Rectangle 1" d="M21 11.6667L12.547 20.1197C12.1928 20.4739 12.0157 20.651 11.8992 20.8686C11.7828 21.0862 11.7336 21.3318 11.6354 21.823L11.1226 24.3871C11.0671 24.6643 11.0394 24.8029 11.1183 24.8817C11.1971 24.9606 11.3357 24.9329 11.6129 24.8774L14.177 24.3646L14.177 24.3646C14.6682 24.2664 14.9138 24.2172 15.1314 24.1008C15.349 23.9843 15.5261 23.8072 15.8803 23.453L15.8803 23.453L24.3333 15C24.7877 14.5456 25.0149 14.3184 25.1363 14.0734C25.3674 13.6071 25.3674 13.0596 25.1363 12.5933C25.0149 12.3482 24.7877 12.121 24.3333 11.6667L24.3333 11.6667C23.879 11.2123 23.6518 10.9851 23.4067 10.8637C22.9404 10.6326 22.3929 10.6326 21.9266 10.8637C21.6816 10.9851 21.4544 11.2123 21 11.6667Z" fill="#E1BD00"/>
</g>
</svg>
