<svg width="28" height="27" viewBox="0 0 28 27" fill="none" xmlns="http://www.w3.org/2000/svg">
<g id="sort">
<g id="vuesax/outline/sort">
<g id="sort_2">
<path id="Vector" d="M24 8.61117H4.00002C3.54446 8.61117 3.16669 8.23339 3.16669 7.77783C3.16669 7.32228 3.54446 6.9445 4.00002 6.9445H24C24.4556 6.9445 24.8334 7.32228 24.8334 7.77783C24.8334 8.23339 24.4556 8.61117 24 8.61117Z" fill="#5F5F5F"/>
<path id="Vector_2" d="M20.6667 14.1667H7.33336C6.87781 14.1667 6.50003 13.7889 6.50003 13.3333C6.50003 12.8778 6.87781 12.5 7.33336 12.5H20.6667C21.1223 12.5 21.5 12.8778 21.5 13.3333C21.5 13.7889 21.1223 14.1667 20.6667 14.1667Z" fill="#5F5F5F"/>
<path id="Vector_3" d="M16.2223 19.7222H11.7779C11.3223 19.7222 10.9445 19.3444 10.9445 18.8888C10.9445 18.4333 11.3223 18.0555 11.7779 18.0555H16.2223C16.6779 18.0555 17.0556 18.4333 17.0556 18.8888C17.0556 19.3444 16.6779 19.7222 16.2223 19.7222Z" fill="#5F5F5F"/>
</g>
</g>
</g>
</svg>
