<svg width="18" height="19" viewBox="0 0 18 19" fill="none" xmlns="http://www.w3.org/2000/svg">
<rect width="18" height="19" fill="#1C1C1C"/>
<g clip-path="url(#clip0_0_1)">
<rect width="1440" height="1018" transform="translate(-243 -837)" fill="#F9FAFF"/>
<g filter="url(#filter0_d_0_1)">
<rect x="-244" y="-848" width="797" height="1022" fill="white"/>
</g>
<g filter="url(#filter1_b_0_1)">
<path d="M-24 -8C-24 -10.7614 -21.7614 -13 -19 -13H130C132.761 -13 135 -10.7614 135 -8V27C135 29.7614 132.761 32 130 32H-19C-21.7614 32 -24 29.7614 -24 27V-8Z" fill="white"/>
<path d="M-23.5 -8C-23.5 -10.4853 -21.4853 -12.5 -19 -12.5H130C132.485 -12.5 134.5 -10.4853 134.5 -8V27C134.5 29.4853 132.485 31.5 130 31.5H-19C-21.4853 31.5 -23.5 29.4853 -23.5 27V-8Z" stroke="#1C1C1C"/>
</g>
<path d="M3.62 8.29C5.06 11.12 7.38 13.43 10.21 14.88L12.41 12.68C12.68 12.41 13.08 12.32 13.43 12.44C14.55 12.81 15.76 13.01 17 13.01C17.55 13.01 18 13.46 18 14.01V17.5C18 18.05 17.55 18.5 17 18.5C7.61 18.5 0 10.89 0 1.5C0 0.95 0.45 0.5 1 0.5H4.5C5.05 0.5 5.5 0.95 5.5 1.5C5.5 2.75 5.7 3.95 6.07 5.07C6.18 5.42 6.1 5.81 5.82 6.09L3.62 8.29Z" fill="#1C1C1C"/>
</g>
<defs>
<filter id="filter0_d_0_1" x="-244" y="-888" width="877" height="1102" filterUnits="userSpaceOnUse" color-interpolation-filters="sRGB">
<feFlood flood-opacity="0" result="BackgroundImageFix"/>
<feColorMatrix in="SourceAlpha" type="matrix" values="0 0 0 0 0 0 0 0 0 0 0 0 0 0 0 0 0 0 127 0" result="hardAlpha"/>
<feOffset dx="40"/>
<feGaussianBlur stdDeviation="20"/>
<feColorMatrix type="matrix" values="0 0 0 0 0 0 0 0 0 0 0 0 0 0 0 0 0 0 0.02 0"/>
<feBlend mode="normal" in2="BackgroundImageFix" result="effect1_dropShadow_0_1"/>
<feBlend mode="normal" in="SourceGraphic" in2="effect1_dropShadow_0_1" result="shape"/>
</filter>
<filter id="filter1_b_0_1" x="-28.7678" y="-17.7678" width="168.536" height="54.5357" filterUnits="userSpaceOnUse" color-interpolation-filters="sRGB">
<feFlood flood-opacity="0" result="BackgroundImageFix"/>
<feGaussianBlur in="BackgroundImageFix" stdDeviation="2.38392"/>
<feComposite in2="SourceAlpha" operator="in" result="effect1_backgroundBlur_0_1"/>
<feBlend mode="normal" in="SourceGraphic" in2="effect1_backgroundBlur_0_1" result="shape"/>
</filter>
<clipPath id="clip0_0_1">
<rect width="1440" height="1018" fill="white" transform="translate(-243 -837)"/>
</clipPath>
</defs>
</svg>
