<svg width="19" height="19" viewBox="0 0 19 19" fill="none" xmlns="http://www.w3.org/2000/svg">
<path id="Vector" d="M9.5 0C4.25323 0 0 4.25334 0 9.50025C6.49507e-05 10.7478 0.245854 11.9832 0.723334 13.1358C1.20081 14.2884 1.90063 15.3357 2.78284 16.2178C3.66504 17.0999 4.71235 17.7997 5.86496 18.277C7.01758 18.7544 8.25294 19.0001 9.50049 19C10.7481 18.9999 11.9834 18.7541 13.136 18.2766C14.2885 17.7992 15.3358 17.0993 16.2179 16.2171C17.1 15.3349 17.7997 14.2875 18.277 13.1349C18.7544 11.9822 19.0001 10.7468 19 9.49926C19 4.25334 14.7458 0 9.5 0ZM9.35057 15.0411H9.3001C8.52625 15.0183 7.98 14.4473 8.00276 13.6843C8.02453 12.9342 8.58365 12.3889 9.33177 12.3889L9.37729 12.3909C10.1729 12.4137 10.7132 12.9787 10.6905 13.7635C10.6677 14.5156 10.1185 15.0411 9.35057 15.0411ZM12.6073 8.57793C12.4252 8.83523 12.0254 9.15784 11.5207 9.55072L10.9646 9.9337C10.6598 10.1712 10.4757 10.3958 10.4074 10.6145C10.352 10.7867 10.3263 10.8333 10.3214 11.1846V11.2736H8.1987L8.20464 11.0935C8.23135 10.3572 8.24917 9.92182 8.55495 9.56259C9.0349 9.00049 10.0938 8.31766 10.1383 8.28897C10.2835 8.18284 10.4103 8.05344 10.5133 7.90599C10.736 7.59822 10.834 7.35675 10.834 7.12123C10.834 6.7907 10.737 6.48491 10.544 6.21474C10.358 5.95151 10.0047 5.82088 9.49406 5.82088C8.9874 5.82088 8.64005 5.9812 8.43323 6.31173C8.21948 6.64918 8.11161 7.00445 8.11161 7.36764V7.45868H5.92365L5.9276 7.36368C5.98401 6.02474 6.46297 5.05987 7.34766 4.49678C7.90479 4.13953 8.59849 3.95844 9.40698 3.95844C10.4639 3.95844 11.3584 4.21573 12.061 4.72241C12.7745 5.23602 13.1357 6.00594 13.1357 7.0094C13.1347 7.57051 12.9576 8.09797 12.6073 8.57793Z" fill="#1C1C1C"/>
</svg>
