<svg width="73" height="81" viewBox="0 0 73 81" fill="none" xmlns="http://www.w3.org/2000/svg">
<path d="M41.4808 4.51389L35.262 8.22388C31.4223 0.887257 22.7465 -1.73463 15.8749 2.36491C9.00317 6.46446 6.54744 15.7272 10.3872 23.0639L4.16847 26.7739C0.74818 28.8144 -0.486545 33.4716 1.42464 37.1233L22.2739 76.9602C24.1851 80.6119 28.5472 81.9302 31.9675 79.8897L69.2798 57.6297C72.7001 55.5892 73.9348 50.932 72.0236 47.2803L51.1743 7.44337C49.2632 3.79166 44.901 2.47339 41.4808 4.51389ZM23.5557 32.6328C24.5113 34.4587 23.8939 36.7873 22.1837 37.8076C20.4736 38.8278 18.2925 38.1687 17.3369 36.3428L13.8621 29.7033L20.0808 25.9934L23.5557 32.6328ZM19.3497 9.00439C22.77 6.9639 27.1321 8.28216 29.0433 11.9339L16.6059 19.3539C14.6947 15.7022 15.9294 11.0449 19.3497 9.00439ZM42.2118 21.5028C43.1674 23.3287 42.55 25.6573 40.8399 26.6776C39.1297 27.6978 36.9487 27.0387 35.9931 25.2128L32.5182 18.5734L38.7369 14.8634L42.2118 21.5028Z" fill="white" fill-opacity="0.13"/>
</svg>
