<svg width="96" height="94" viewBox="0 0 96 94" fill="none" xmlns="http://www.w3.org/2000/svg">
<path d="M48.8455 78.1475C44.9919 80.2182 43.4613 85.2608 45.4014 89.3762C47.3414 93.4916 52.0466 95.1834 55.9001 93.1126C59.7537 91.0419 61.3193 85.9805 59.3792 81.8651C57.4392 77.7497 52.699 76.0768 48.8455 78.1475ZM1.37109 33.323C2.34111 35.3807 4.71121 36.2172 6.63799 35.1818L10.1412 33.2993L36.1391 54.9188L35.7131 66.5889C35.519 72.9764 41.7569 77.2676 47.0818 74.4062L85.6173 53.6989C87.5441 52.6635 88.3269 50.1328 87.3568 48.0751C86.3868 46.0174 84.0167 45.181 82.09 46.2163L43.5545 66.9236L43.8807 57.3703L69.9797 43.3458C72.6071 41.934 74.1962 39.1576 74.2938 36.1979L75.3891 5.17769C75.417 4.45195 75.267 3.73097 74.9539 3.08609C74.6407 2.4412 74.1754 1.89477 73.6038 1.50085C73.0322 1.10694 72.3742 0.879203 71.695 0.840173C71.0158 0.801147 70.3388 0.952182 69.7311 1.27834L17.8833 29.1391L13.0141 25.0503C12.4315 24.563 11.731 24.2629 10.9946 24.1853C10.2582 24.1077 9.51635 24.2557 8.85594 24.612L3.11065 27.6992C1.18388 28.7346 0.401074 31.2653 1.37109 33.323ZM83.8777 59.3227C80.0242 61.3934 78.4936 66.436 80.4336 70.5514C82.3737 74.6668 87.0788 76.3586 90.9324 74.2878C94.7859 72.2171 96.3516 67.1557 94.4115 63.0403C92.4715 58.9249 87.7313 57.2519 83.8777 59.3227Z" fill="white" fill-opacity="0.13"/>
</svg>
