<svg width="90" height="73" viewBox="0 0 90 73" fill="none" xmlns="http://www.w3.org/2000/svg">
<path d="M67.9458 10.4127L59.1376 13.2836L56.9582 5.66126C55.7595 1.46898 51.6078 -0.927555 47.7321 0.33563L5.45281 14.1158C1.5772 15.379 -0.612995 19.8426 0.585705 24.0349L10.3933 58.3353C11.592 62.5276 15.7437 64.9242 19.6193 63.661C21.4282 69.9875 27.6096 73.5557 33.4583 71.6494C39.3069 69.7432 42.5679 63.0974 40.7589 56.7709L61.8986 49.8808C63.7076 56.2073 69.889 59.7755 75.7376 57.8692C81.5863 55.9629 84.8472 49.3172 83.0383 42.9907L86.5616 41.8423C88.4994 41.2107 89.5945 38.9789 88.9951 36.8828L85.3663 24.1916C84.8977 22.5528 83.9468 21.1129 82.6493 20.0776L71.2003 11.0185C70.2585 10.2839 69.038 10.0567 67.9458 10.4127ZM31.2788 64.0271C29.341 64.6587 27.2652 63.4604 26.6658 61.3643C26.0665 59.2681 27.1616 57.0363 29.0994 56.4048C31.0372 55.7732 33.113 56.9714 33.7124 59.0676C34.3117 61.1637 33.2166 63.3955 31.2788 64.0271ZM69.5804 16.1295L79.2103 23.4066L63.4965 28.5282L60.7722 19.0003L69.5804 16.1295ZM73.5582 50.2469C71.6204 50.8785 69.5445 49.6802 68.9452 47.5841C68.3458 45.4879 69.4409 43.2561 71.3787 42.6246C73.3165 41.993 75.3924 43.1912 75.9917 45.2874C76.5911 47.3835 75.496 49.6153 73.5582 50.2469Z" fill="white" fill-opacity="0.13"/>
</svg>
