<svg width="24" height="24" viewBox="0 0 24 24" fill="none" xmlns="http://www.w3.org/2000/svg">
<path d="M10.0732 2.82009L3.1432 8.37008C2.3632 8.99008 1.86319 10.3001 2.03319 11.2801L3.3632 19.2401C3.6032 20.6601 4.96319 21.8101 6.40319 21.8101H17.6032C19.0332 21.8101 20.4032 20.6501 20.6432 19.2401L21.9732 11.2801C22.1332 10.3001 21.6332 8.99008 20.8632 8.37008L13.9332 2.8301C12.8632 1.9701 11.1332 1.97009 10.0732 2.82009Z" stroke="#5F5F5F" stroke-width="1.5" stroke-linecap="round" stroke-linejoin="round"/>
<path d="M12 15.5C13.3807 15.5 14.5 14.3807 14.5 13C14.5 11.6193 13.3807 10.5 12 10.5C10.6193 10.5 9.5 11.6193 9.5 13C9.5 14.3807 10.6193 15.5 12 15.5Z" stroke="#5F5F5F" stroke-width="1.5" stroke-linecap="round" stroke-linejoin="round"/>
</svg>
