<svg width="22" height="23" viewBox="0 0 22 23" fill="none" xmlns="http://www.w3.org/2000/svg">
<g clip-path="url(#clip0_1_17)">
<path d="M0.463956 11.3624C0.463447 13.2948 0.944565 15.1817 1.8594 16.8448L0.376465 22.5273L5.91748 21.0025C7.45005 21.8781 9.16718 22.3369 10.9121 22.337H10.9167C16.6771 22.337 21.3663 17.4176 21.3687 11.371C21.3698 8.441 20.2836 5.68581 18.31 3.61296C16.3368 1.54028 13.7125 0.398218 10.9163 0.396881C5.1552 0.396881 0.46642 5.31603 0.464041 11.3624" fill="url(#paint0_linear_1_17)"/>
<path d="M0.0907977 11.3588C0.0902031 13.3608 0.588565 15.3151 1.53602 17.0378L-9.15527e-05 22.924L5.7396 21.3445C7.32108 22.2495 9.10166 22.7266 10.9135 22.7273H10.9182C16.8853 22.7273 21.7428 17.6309 21.7454 11.3679C21.7464 8.3326 20.6211 5.47837 18.577 3.33126C16.5327 1.18441 13.8145 0.00124806 10.9182 0C4.95006 0 0.0931761 5.09566 0.0907977 11.3588ZM3.50891 16.7411L3.2946 16.3841C2.39369 14.8807 1.91818 13.1434 1.91886 11.3595C1.92081 6.15375 5.95765 1.91845 10.9216 1.91845C13.3255 1.91952 15.5846 2.90299 17.2838 4.68736C18.9829 6.47191 19.9179 8.84412 19.9173 11.3672C19.9151 16.5729 15.8782 20.8088 10.9182 20.8088H10.9146C9.29957 20.8079 7.71564 20.3527 6.33429 19.4925L6.00556 19.2879L2.59951 20.2251L3.50891 16.7411V16.7411Z" fill="url(#paint1_linear_1_17)"/>
<path d="M8.21204 6.61009C8.00937 6.13734 7.79608 6.1278 7.60334 6.11951C7.44552 6.11238 7.2651 6.11292 7.08485 6.11292C6.90443 6.11292 6.61129 6.18415 6.36351 6.46808C6.11548 6.75228 5.41656 7.43907 5.41656 8.83592C5.41656 10.2329 6.38602 11.5828 6.52117 11.7724C6.65648 11.9617 8.39272 14.92 11.1425 16.058C13.4278 17.0038 13.8929 16.8157 14.3889 16.7682C14.8849 16.721 15.9895 16.0816 16.2149 15.4186C16.4404 14.7557 16.4404 14.1875 16.3728 14.0688C16.3052 13.9505 16.1248 13.8794 15.8542 13.7375C15.5836 13.5955 14.2535 12.9086 14.0056 12.8139C13.7576 12.7192 13.5772 12.6719 13.3968 12.9562C13.2164 13.2401 12.6983 13.8794 12.5404 14.0688C12.3827 14.2586 12.2248 14.2822 11.9543 14.1402C11.6836 13.9977 10.8123 13.6983 9.77865 12.7311C8.97441 11.9785 8.43145 11.0492 8.27363 10.7649C8.1158 10.481 8.25673 10.3272 8.39238 10.1857C8.51393 10.0585 8.66301 9.85416 8.79841 9.68844C8.9333 9.52262 8.97832 9.40432 9.06853 9.21497C9.15882 9.02545 9.11363 8.85963 9.0461 8.71762C8.97832 8.57561 8.4526 7.17145 8.21204 6.61009Z" fill="white"/>
</g>
<defs>
<linearGradient id="paint0_linear_1_17" x1="1049.99" y1="2213.43" x2="1049.99" y2="0.396881" gradientUnits="userSpaceOnUse">
<stop stop-color="#1FAF38"/>
<stop offset="1" stop-color="#60D669"/>
</linearGradient>
<linearGradient id="paint1_linear_1_17" x1="1087.27" y1="2292.4" x2="1087.27" y2="0" gradientUnits="userSpaceOnUse">
<stop stop-color="#F9F9F9"/>
<stop offset="1" stop-color="white"/>
</linearGradient>
<clipPath id="clip0_1_17">
<rect width="21.7455" height="23" fill="white"/>
</clipPath>
</defs>
</svg>
